<svg version="1" xmlns="http://www.w3.org/2000/svg" width="933.333" height="933.333" viewBox="0 0 700.000000 700.000000"><path d="M341.9 4.4c-4.1 2.4-22.2 12.9-40.4 23.3-18.1 10.5-34.6 20-36.5 21.2-1.9 1.1-6 3.4-9 5.1-3 1.7-6.2 3.4-7 4-3.6 2.3-15.1 9-15.4 9-.4 0-16.2 9.1-28.6 16.5-3 1.8-7.5 4.4-10 5.7-2.5 1.4-8.3 4.8-13 7.5-4.7 2.7-16.6 9.6-26.5 15.3-9.9 5.6-20 11.5-22.5 13s-10.8 6.3-18.5 10.7c-7.7 4.4-22.5 13-33 19.1-10.4 6-20.8 12-23 13.2-2.2 1.2-5.8 3.3-8 4.7l-4 2.5V350c0 96.2.2 175 .5 175.3.3.2 2.5 1.6 5 2.9 2.5 1.4 8.5 4.8 13.3 7.7 4.9 2.8 9.3 5.1 9.8 5.1s.9.4.9 1c0 .5.4 1 .9 1s11.9 6.3 25.3 14.1c13.3 7.8 26.1 15.1 28.3 16.3 4.1 2.3 36.9 21.3 77.4 44.8 12.3 7.1 23.8 13.8 25.5 14.7 4.9 2.8 35.5 20.5 52.3 30.2 8.3 4.9 16.9 9.8 19 11 2.1 1.2 11 6.3 19.8 11.4 26.1 15.1 24.9 14.5 27.3 13.2 2.4-1.4 24.5-14.1 53.2-30.7 30.3-17.5 43.1-24.9 61.5-35.5 39.7-22.9 74.4-42.9 79.5-45.9 3-1.8 9.8-5.7 15-8.6 5.2-3 11.8-6.9 14.7-8.7 2.9-1.8 5.4-3.3 5.7-3.3.2 0 7.1-3.9 15.3-8.6 8.1-4.8 16.8-9.8 19.3-11.2 2.5-1.3 5-2.8 5.5-3.2.6-.5 3-1.9 5.5-3.3 2.5-1.3 9.3-5.2 15.1-8.6l10.6-6.1V175.1l-6.6-4c-3.6-2.1-8.6-5-11.1-6.4-2.5-1.4-8.5-4.8-13.5-7.7-4.9-2.9-10.3-6-12-7-8.6-4.9-81.5-47.1-84.5-48.8-1.9-1.1-5.1-2.9-7-4-1.9-1.1-13.2-7.6-25-14.4-11.8-6.9-23.5-13.6-26-15-3.7-2.1-15.6-9-22-12.8-10.3-6.1-49-28.3-57-32.8-2.5-1.4-6.2-3.6-8.2-4.9-2.1-1.2-4-2.3-4.3-2.3-.3 0-2.2-1.1-4.3-2.4-5.3-3.4-18.4-11-20.3-11.8-1.1-.4-4.4.9-9 3.6zm25 91.2c22.7 13.2 40.6 23.5 51.9 30 2 1.2 6.6 3.8 10.2 5.9 3.6 2 8.4 4.8 10.7 6.1 2.3 1.3 9.2 5.3 15.3 8.9 6.1 3.6 11.5 6.5 12.1 6.5.5 0 .9.4.9.9s.6 1.1 1.3 1.3c1 .2 26.2 14.4 31.7 17.9.8.5 18.6 10.8 39.5 22.8l38 21.9v131.7c0 72.4-.2 132-.5 132.4-.3.4-6.1 4-13 7.9-6.9 4-13.2 7.6-14 8.1-.8.6-11.1 6.5-22.9 13.3-11.7 6.8-23 13.2-25 14.4-4.3 2.5-33.3 19.2-66.1 38.2-12.9 7.4-24.6 14.2-26 14.9-1.4.8-4 2.3-5.8 3.4C391.8 590 350 614 349.6 614c-.3 0-4.3-2.2-8.8-4.8-10.8-6.3-54.2-31.4-58.9-34-4.1-2.3-43.3-24.9-60.9-35.2-6.3-3.7-31.3-18.1-55.5-32-24.2-13.9-44.2-25.5-44.4-25.7-.5-.4-.5-264.3 0-264.7.4-.3 44.9-26 69.4-40.1 5.5-3.2 19-11 30-17.3 11-6.4 21.1-12.2 22.5-12.9 1.4-.8 3.9-2.2 5.5-3.2 5-3.1 15.7-9.3 20.5-11.8 2.5-1.4 5-2.8 5.5-3.3.6-.4 3-1.9 5.5-3.2 4.4-2.5 51.1-29.4 60-34.6 2.5-1.5 5.4-3.2 6.5-3.8 1.1-.7 2.4-1.2 2.9-1.3.5-.1 8.4 4.2 17.5 9.5z"/></svg>