<svg width="407" height="98" xmlns="http://www.w3.org/2000/svg">
    <g fill="red" fill-rule="evenodd">
        <path d="M135.048 75.152c-4.736 0-9.136-1.184-13.2-3.552-4.064-2.368-7.312-5.552-9.744-9.552-2.432-4-3.648-8.304-3.648-12.912 0-4.608 1.216-8.896 3.648-12.864 2.432-3.968 5.696-7.136 9.792-9.504 4.096-2.368 8.512-3.552 13.248-3.552 3.712 0 7.168.72 10.368 2.16a27.367 27.367 0 0 1 8.448 5.904l-7.872 6.912c-1.344-1.536-3.008-2.752-4.992-3.648-1.984-.896-4-1.344-6.048-1.344-2.688 0-5.184.72-7.488 2.16-2.304 1.44-4.128 3.392-5.472 5.856a16.285 16.285 0 0 0-2.016 7.92c0 2.88.672 5.552 2.016 8.016 1.344 2.464 3.168 4.416 5.472 5.856 2.304 1.44 4.8 2.16 7.488 2.16 2.112 0 4.176-.464 6.192-1.392 2.016-.928 3.728-2.192 5.136-3.792l7.872 6.816a27.332 27.332 0 0 1-8.64 6.144c-3.264 1.472-6.784 2.208-10.56 2.208zm49.092-9.408c2.496 0 5.024-.48 7.584-1.44 2.56-.96 4.64-2.208 6.24-3.744l6.72 6.912c-2.112 2.24-5.088 4.08-8.928 5.52-3.84 1.44-7.584 2.16-11.232 2.16-4.736 0-9.104-1.12-13.104-3.36-4-2.24-7.168-5.344-9.504-9.312-2.336-3.968-3.504-8.448-3.504-13.44 0-4.928 1.12-9.344 3.36-13.248 2.24-3.904 5.312-6.976 9.216-9.216 3.904-2.24 8.192-3.36 12.864-3.36 7.616 0 13.584 2.624 17.904 7.872 4.32 5.248 6.48 12.416 6.48 21.504H169.74c.64 3.968 2.256 7.152 4.848 9.552 2.592 2.4 5.776 3.6 9.552 3.6zm-.192-33.12c-3.52 0-6.56 1.104-9.12 3.312-2.56 2.208-4.224 5.168-4.992 8.88h27.072c-.576-3.648-1.968-6.592-4.176-8.832-2.208-2.24-5.136-3.36-8.784-3.36zm44.964 1.152c1.6-3.264 3.968-5.84 7.104-7.728s6.688-2.832 10.656-2.832V33.2c-5.312 0-9.6 1.44-12.864 4.32-3.264 2.88-4.896 6.688-4.896 11.424V74H217.2V24.368h11.712v9.408zm53.508 37.44c-1.408 1.216-3.056 2.176-4.944 2.88-1.888.704-3.792 1.056-5.712 1.056-4.096 0-7.44-1.344-10.032-4.032-2.592-2.688-3.888-6.112-3.888-10.272V34.064h-7.2v-9.696h7.2V10.736h11.328v13.632h11.232v9.696h-11.232v25.344c0 1.664.48 3.04 1.44 4.128s2.144 1.632 3.552 1.632c.96 0 1.872-.16 2.736-.48.864-.32 1.584-.768 2.16-1.344l3.36 7.872zm8.1-46.848h11.712V74H290.52V24.368zm5.856-7.488c-1.856 0-3.44-.672-4.752-2.016-1.312-1.344-1.968-2.912-1.968-4.704 0-1.792.656-3.344 1.968-4.656 1.312-1.312 2.896-1.968 4.752-1.968 1.792 0 3.344.656 4.656 1.968C302.344 6.816 303 8.368 303 10.16c0 1.792-.656 3.36-1.968 4.704-1.312 1.344-2.864 2.016-4.656 2.016zm36.132 58.272c-3.84 0-7.68-.656-11.52-1.968-3.84-1.312-7.264-3.12-10.272-5.424l4.992-7.68c2.688 1.92 5.52 3.408 8.496 4.464 2.976 1.056 5.808 1.584 8.496 1.584 2.624 0 4.688-.512 6.192-1.536 1.504-1.024 2.256-2.4 2.256-4.128 0-1.792-.848-3.136-2.544-4.032-1.696-.896-4.336-1.824-7.92-2.784-4.096-1.088-7.376-2.192-9.84-3.312-2.464-1.12-4.384-2.608-5.76-4.464-1.376-1.856-2.064-4.224-2.064-7.104 0-3.008.784-5.696 2.352-8.064 1.568-2.368 3.776-4.208 6.624-5.52 2.848-1.312 6.096-1.968 9.744-1.968 3.264 0 6.528.528 9.792 1.584a39.238 39.238 0 0 1 9.216 4.368l-4.608 7.872c-2.368-1.536-4.8-2.736-7.296-3.6-2.496-.864-4.864-1.296-7.104-1.296s-4.096.496-5.568 1.488c-1.472.992-2.208 2.32-2.208 3.984 0 1.088.352 1.952 1.056 2.592.704.64 1.696 1.2 2.976 1.68s3.456 1.2 6.528 2.16c3.648 1.024 6.656 2.048 9.024 3.072a15.757 15.757 0 0 1 6 4.512c1.632 1.984 2.448 4.576 2.448 7.776 0 4.736-1.792 8.544-5.376 11.424-3.584 2.88-8.288 4.32-14.112 4.32zm55.812-51.936c3.584 0 6.784.816 9.6 2.448 2.816 1.632 5.008 3.904 6.576 6.816 1.568 2.912 2.352 6.224 2.352 9.936V74h-11.424V44.72c0-3.392-.96-6.16-2.88-8.304s-4.416-3.216-7.488-3.216c-3.392 0-6.256 1.04-8.592 3.12-2.336 2.08-3.504 4.624-3.504 7.632V74h-11.712V6.896h11.712v24.192c1.536-2.368 3.664-4.272 6.384-5.712 2.72-1.44 5.712-2.16 8.976-2.16z" fill-rule="nonzero" />
        <path d="M42.435 0L84.87 24.5v49L42.435 98 0 73.5v-49L42.435 0zm0 12L10.392 30.5v37L42.435 86l32.043-18.5v-37L42.435 12z" />
    </g>
</svg>