<svg xmlns="http://www.w3.org/2000/svg" viewBox="21 0 1082 850"><path fill="#F00" d="M1094.4 122.7c-3.7-3.6-8.1-9.3-11.9-12.9-9.2-8.6-18.9-17.7-28.7-25.8-4.8-4-9.6-8.5-14.8-11.9-6.9-4.5-11-4.7-13.4-13.2-3.5-12.4-11.5-21.8-21.5-29.4C959.7-4 887.7-.7 839 19.7c-26.7 11.2-50.2 29.6-69.9 50.4-8.9 9.5-16 19.1-22 30.6-19.8 37.9-29.9 22.2-68.2 45.1-12.4 7.4-100.4 72.8-112.9 83.4-23.5 19.9-47.8 40.2-68.8 63-11.4 12.4-22.8 24.7-34.7 36.9-4.5 4.6-7.7 10.2-12.1 14.8-4.5 4.6-10.7 6.3-15.7 10-22.8 16.4-40.6 38.3-60.7 57.8-19.6 19.1-96.3 95.5-104.1 102.2-7.6 6.6-14.4 13.4-22.5 19.6-5.8 4.4-19.1 13.5-16.8 22.1 1-.1 2.3 4.7 3.3 4.4-14.6 14.4-28.8 23.2-44.2 36.6 1.9.6 2 1.6 4.3.4-3.6 3.8-148.9 125.6-152.9 131.6-3.6 5.3-10.1 13-11.1 19 6.9.1 13.5-6.4 19-10.3 3.1-2.2 6.3-4.4 9.3-6.9 2.8-2.4 5.4-6.3 8.8-8-2.2 2.9-.7 6.2 2.3 5.6 1.7-.3 3.4-4.1 4.5-5.1 3.6-3.1 8.5-6.2 12.6-9.3 8.8-6.6 121.4-100.6 167-112.8 13.2-3.5 25.7-10.2 39.2-13.6 13.8-3.4 28.8-4.7 42.9-6.8 15.2-2.3 29.7-5.7 45-8.5 14.1-2.6 28-8.4 41.9-9.4-3.5 4.4-10.9 5.3-15.8 7.4 7.4 3.7 17 2.7 25.4 1.9 7.3-.7 17.8-6.7 24.7-4.6-2.8 3.9-14 9.5-13.1 15 4 .3 8.2-3.3 12.3-4.4 4.4-1.2 9-1.4 13.2-2.9-1 1.5-2.6 2.8-4.3 3.7 6.5-.2 11.3-3 17.5-3-1.3 1.3-.9 2.6-1.5 3.7 2.5.4 6.6-.9 10.7-2.7 2 4.8 4.7 9.6 8.7 13.2 3.8 3.5 8.2 4.1 12.7 6.6 4.6 2.6 9.2 5.6 13.6 8.4 8.9 5.6 17.5 11.1 25.8 17.9 8 6.5 17.4 13.1 24.4 21 4.7 5.3 8.9 11.5 13.4 17.2 2.1 2.7 3.6 5.8 5.7 8.6 1.9 2.5 4.9 4.3 6.3 7.1-7.1-5.8-18.8-8.2-26.9-12.1-3.6-1.7-7.4-7-12.2-6.4-4.1.5-6.9 5.5-10.7 7.2-4.6 2-13.6 4.3-21.3 17.9-4.9 8.7-5.5 22.9-1.6 32.2 2.6 6.2 5.6 15.1 10.1 19.8-12-41.8 3.6-52.4 13.5-55.5-3.5 5.7 6.7 13.8 11.4 11.9 3.1-1.3 4.8-6.2 7.9-7.2 2.9-1 6.3 2.4 9.5 3.1 3.5.8 7 .9 10.2 2.7 3.4 1.9 5.4 2.9 9.2 3.9 7.1 1.8 12.9 2.6 19.7 5.5-1.9 4.8 6.9 12.1 7.5 14.4.6 2.3 2.8 4.1 3.8 6.3 1.1 2.5.8 3.9 1.2 6.6.5 3.1 4.2 11.2 5.2 13.5.8 1.7 2.6 3.1 3.3 5-2.5 4.9 1.9 24.3 4.3 28.7-5.7 6 .3 13.9 7.1 11.8.6 5.8.4 10.5-3.5 15-2.8 3.2-6.6 6.8-10.5 8.6 18.6 8.3 29.9-21.6 25.4-35-2.6-7.6-7.2-15.7-9.2-23.8-2-8-7.3-18.7-3.7-26.5.6 4.5 2.9 8.9 3.7 13.6.7 4.6 1.4 8.8 4.5 12.7 3.2 4 2.5 7.9 3.5 13 .8 4.3 3.2 8 4.2 12.3 1.1 4.5.7 9.8 1.4 14.3.8 5 1.4 8.2.2 13-1 3.9-2.1 9.9 1.8 12.9 2.3 1.7 9.8 3.8 13 3.5.8 7-4.8 24-14.2 23.7 4.6 2.4 11 1 15-3.2 4.3-4.6 5.9-8.5 6.4-14.2.4-5.3 1.3-11.5.8-17.2-.4-5 .2-10.1-1.4-15.1-3.5-10.3-6.1-19.4-7.2-30.8-1.1-11.5-7-18.4-11.6-28.5-2-4.4-3.6-9.1-4.7-13.7 6.8 4.2 9.3-.4 15.5-2.4 3.3-1.1 5.1 0 7.9 1.8 1 .6 1.8 1.1 2.6 1.4-1.2 2.5-2.6 4.9-3.7 7.2-8.9 17.8-3.7 35.6 3.6 41.7-.7-3.7-8.3-23.1.5-36.9 1.4-2.2 3.6-5.4 5.6-8.5 3.5 7 10.5 11.2 16.7 4.5 1.2 4.7 4.1 6.6 4.3 11.9.2 5-2.3 10.4-7.8 10.9 3.5 2.5 9.8-2.4 11.6-5.7 2.4-4.3 2.5-10.5 1.4-15.4-1.1-5-4.6-9.5-8.8-12.9 2.7-3.7 4.7-9.3 8.7-11 7.8-3.4 21.4-11.4 29.9-5.9 4.4 2.9 12.6 2.2 18 2.7 5.6.6 11.8 0 17-.9 5.3-.9 8.9 1.9 10.9 7.3 1.1 2.9-.1 4.4 3.6 5.8 2.1.8 6.7-.1 8.5-.7 1 11.3-7 23.3-16.5 27.2 11.2-3.7 24.2-8.4 25.3-22.2 4.3.5 8.6 7.8 12.1 10.7 4.4 3.6 7.5 7.9 10 12.9 2.6 5.2 1.3 11.3 4.1 15.9 2.6 4.3 11.7 6.5 11.8-.8.4-.3.8-.3 1.2 0 4 13.9 5.3 34.9-2.1 47.7 8.2-7.6 11.4-17.2 12.3-27.7.9-11.1 1.1-22.3-3-32.2-1.1-2.6-1.1-5.5-2.1-7.9-1.2-2.8-3.7-2.6-5.6-4.4-3.4-3.3-4.6-7.4-8.8-10.4-1.6-1.2-3.2-2.4-4.7-3.6 5.2-2.8 8.5-7.8 7.7-15.3-1.1-10.9-13.3-14-22.1-15.2-11.6-1.5-23.5 1.2-34.4-4.3-4.3-2.2-7.4-6.1-11.8-7.5-5.5-1.8-9.7-.9-14.9-4.3-18.7-12.4-39.2-24-58.9-35.1-10.5-5.9-19.6-14.5-29.9-20.2-9.9-5.5-19.1-13-29.2-18.1-6.6-3.4-11.7-7.3-17.9-11.5-2.7-1.8-5.9-3-8.8-4.6-4-2.3-3.6-3-2.9-7.3 1.1-6.5 3.1-13.5 3.6-20 .1-1.6.2-3.1.3-4.6 121-24.2 141.4-41 164.2-51.5 12.6-5.8 92-52.8 129.7-113.7 15-24.2 25.2-52.9 30.8-79.1 3.1-14.4 5.8-28.3 5.8-43.9 0-15.8 1.3-29.8 3.8-44.9 2.3-14.1 10.5-21.9 17.9-33.7 7.4-11.7 19.8-16.9 29.6-25.8 5-4.6 9.7-9.4 14.8-13.9 6-5.1 10.4-4.7 17.9-6 6.8-1.2 14.1-1.2 20.8-3.1 6.1-1.7 12.2-5.2 18.6-6.3 6.1-1 22.2 1.5 12.4-8zM834 704.7c.9.3 2.6-.5 3.4.1 1.4 1.1.1 2.4.8 3.5 2.8 3.9 7.7 3.4 10.6 0 1 3.5-1.5 7-4.7 9.9-4.3-3.7-8.4-7.6-12.8-11.6-1.3-1.2-2.7-1.8-3.7-3.3 2-.4 4.6.9 6.4 1.4zM592.4 582.4c2.5 4.2 3.4 9.4 6.8 13.4 4.3 4.9 9 5.9 14.9 7.9 11.5 3.9 19.9 10.6 30.1 17 8.6 5.4 18.6 8.5 27.4 13.6 12.7 7.3 24.8 16.2 35.6 26 9.5 8.5 22.9 14.9 25.5 27.6-4.3.9-6.7 9.7-18.6 8.3-6.3-.7-10.3-1.3-14.4 4.1-1.3 1.8-3.3 4.1-4.1 6.1-.2.5-.3 1-.4 1.4-.5-.1-1-.2-1.5-.2-6.2-.5-13.2-3.5-19-5.4-7.7-2.5-18.2-2.2-22.7-9.6-5.5-8.8-6.2-18.4-15-24.9-3.8-2.8-9.4-4.1-12.6-6.8-1.3-1.1-2.1-3.5-3.6-5-1.8-1.9-4.4-3.4-6.5-5.1-7.3-5.9-15-11.4-22.2-17.9-7.2-6.4-39.8-37.4-49.4-45.1-3.9-3.2-9.9-6.6-13-10.7-1.5-2-1.8-4.7-1.8-7.6 15.1-1.4 32.7-4.4 47.5-7 1.2-.2 2.3-.4 3.5-.6 3.3 7.4 9.8 14.4 13.5 20.5z"/></svg>